<?xml version="1.0" standalone="no"?>
<!DOCTYPE svg PUBLIC "-//W3C//DTD SVG 20010904//EN"
 "http://www.w3.org/TR/2001/REC-SVG-20010904/DTD/svg10.dtd">
<svg version="1.0" xmlns="http://www.w3.org/2000/svg"
 width="352.000000pt" height="352.000000pt" viewBox="0 0 352.000000 352.000000"
 preserveAspectRatio="xMidYMid meet">
<metadata>
Created by potrace 1.11, written by Peter Selinger 2001-2013
</metadata>
<g transform="translate(0.000000,352.000000) scale(0.100000,-0.100000)"
fill="#000000" stroke="none">
<path d="M1384 3448 c-27 -18 -50 -36 -52 -40 -2 -5 -9 -8 -15 -8 -7 0 -34
-21 -62 -46 -27 -25 -63 -52 -80 -60 -40 -21 -128 -117 -151 -165 -11 -21 -22
-39 -26 -39 -3 0 -9 -13 -13 -30 -4 -16 -11 -30 -17 -30 -6 0 -9 -3 -6 -6 3
-3 -3 -29 -13 -57 -34 -91 -39 -221 -14 -322 19 -75 69 -179 108 -225 51 -61
125 -137 158 -161 17 -13 36 -28 42 -34 43 -37 106 -59 167 -60 36 -1 113 -13
171 -28 59 -14 143 -29 188 -32 79 -5 82 -5 106 21 14 15 24 32 22 37 -1 5
-36 11 -77 12 -95 4 -137 10 -230 35 -125 34 -132 37 -121 58 11 19 1 29 -63
62 -27 13 -68 39 -92 57 -23 18 -45 33 -48 33 -8 0 -79 73 -102 106 -12 16
-25 41 -29 54 -4 14 -11 30 -15 35 -13 18 -42 116 -44 151 -2 19 -5 36 -8 39
-12 12 5 124 28 190 14 39 28 80 31 93 3 12 9 22 14 22 5 0 9 5 9 11 0 9 69
100 90 119 3 3 13 21 22 40 9 19 41 53 70 75 29 22 59 45 66 52 7 7 29 20 49
29 33 16 34 18 17 31 -24 18 -24 18 -80 -19z"/>
<path d="M2138 3254 c-2 -1 -23 -5 -48 -8 -85 -10 -114 -18 -184 -49 -68 -30
-216 -129 -216 -145 0 -4 -17 -25 -38 -48 -20 -22 -47 -54 -59 -71 -21 -30
-57 -103 -55 -114 0 -3 -3 -22 -7 -42 -5 -20 -5 -37 -1 -39 4 -2 10 -32 13
-68 8 -93 23 -130 53 -130 22 0 24 3 18 28 -4 15 -11 34 -15 43 -16 30 -13
118 3 132 8 6 23 44 33 82 9 39 28 86 40 105 29 43 115 136 115 124 0 -5 5 -1
10 8 10 16 149 98 173 102 7 1 17 4 22 7 9 6 24 10 85 26 8 2 37 6 64 9 28 3
57 9 65 13 9 5 44 8 78 7 89 -3 72 10 -27 19 -25 2 -62 6 -82 8 -21 2 -39 3
-40 1z"/>
<path d="M2364 3222 c8 -13 66 -21 72 -10 3 4 -1 8 -8 9 -7 0 -26 3 -41 5 -16
3 -26 1 -23 -4z"/>
<path d="M2381 2825 c-37 -12 -33 -19 29 -50 18 -10 39 -23 46 -29 6 -6 29
-22 52 -36 49 -30 70 -59 51 -70 -9 -6 -4 -21 19 -59 33 -53 64 -121 56 -121
-3 0 1 -10 7 -22 17 -31 14 -173 -5 -247 -19 -74 -80 -202 -113 -239 -7 -7
-13 -17 -13 -22 0 -12 -207 -220 -219 -220 -5 0 -16 -6 -23 -13 -20 -20 -139
-97 -149 -97 -5 0 -33 -12 -62 -26 -28 -14 -60 -27 -71 -29 -25 -6 -28 -10
-28 -38 0 -20 -9 -27 -42 -38 -22 -8 -43 -14 -46 -14 -3 0 -9 -3 -15 -7 -5 -3
-32 -10 -60 -14 -27 -4 -52 -9 -55 -9 -25 -6 -155 -18 -192 -18 -53 1 -64 -12
-46 -53 12 -26 14 -26 88 -20 75 6 85 7 193 20 32 4 90 18 130 31 71 24 72 24
88 5 16 -19 19 -18 110 28 97 49 140 73 149 82 3 3 29 21 59 40 30 19 62 43
72 54 11 11 19 17 19 13 0 -4 8 1 18 11 11 9 45 42 77 72 78 74 153 168 208
263 25 42 44 77 42 77 -3 0 4 24 14 53 61 168 62 300 5 443 -28 72 -87 168
-96 158 -12 -11 -55 9 -98 47 -24 21 -50 39 -56 39 -7 0 -14 4 -16 8 -1 4 -23
19 -49 33 -39 22 -49 24 -78 14z"/>
<path d="M866 2227 c-15 -11 -17 -23 -12 -63 3 -27 9 -66 14 -86 6 -20 7 -39
4 -42 -3 -4 -1 -6 4 -6 5 0 9 -23 9 -51 0 -48 2 -52 58 -104 96 -90 273 -185
345 -185 12 0 22 -4 22 -8 0 -4 8 -8 18 -9 9 0 49 -4 87 -7 39 -4 75 -7 80 -7
25 -1 183 11 205 16 14 3 39 8 55 10 42 8 152 43 202 66 24 10 45 19 47 19 2
0 41 21 86 46 55 31 80 50 76 60 -3 8 25 44 73 91 73 72 131 145 131 164 0 14
-37 29 -54 23 -9 -3 -16 -12 -16 -20 0 -8 -4 -14 -10 -14 -5 0 -10 -5 -10 -10
0 -12 -37 -56 -108 -128 -42 -43 -55 -51 -70 -43 -13 7 -29 3 -67 -19 -110
-62 -277 -121 -385 -134 -98 -12 -287 -5 -315 12 -5 4 -17 8 -26 9 -9 1 -29 8
-45 14 -16 7 -31 13 -34 14 -3 0 -31 13 -62 29 -61 29 -121 80 -163 136 -15
20 -34 35 -47 35 -17 0 -25 11 -40 53 -10 29 -19 72 -21 97 -3 53 -8 59 -31
42z"/>
<path d="M707 1173 c-29 -6 -52 -11 -52 -11 0 1 -18 -5 -39 -12 -54 -18 -134
-65 -174 -103 -64 -62 -92 -199 -57 -283 40 -96 128 -146 372 -209 72 -19 151
-45 175 -59 49 -27 80 -75 80 -122 0 -53 -10 -68 -59 -89 -40 -16 -70 -20
-178 -19 -96 1 -140 5 -165 17 -19 8 -53 21 -75 27 -37 12 -94 38 -105 50 -11
12 -59 29 -62 22 -2 -4 -3 -59 -3 -122 l0 -114 40 -28 c22 -15 84 -41 138 -59
88 -28 111 -32 215 -31 128 0 157 4 247 34 87 30 109 43 163 97 68 68 95 129
95 216 1 92 -15 142 -57 187 -54 57 -99 81 -251 133 -156 53 -221 83 -249 114
-37 41 -14 130 42 157 45 21 132 28 184 14 23 -7 50 -14 59 -15 29 -6 123 -52
144 -71 58 -54 55 -57 54 70 -1 63 -5 113 -10 110 -5 -3 -9 -2 -9 3 0 17 -99
62 -180 82 -101 25 -213 30 -283 14z"/>
<path d="M1399 1168 c-4 -117 -1 -1137 3 -1144 3 -5 60 -8 127 -6 l121 3 0
215 0 214 123 1 c126 1 144 2 212 14 53 9 153 43 172 58 105 81 140 182 119
342 -10 75 -56 175 -98 210 -35 30 -115 72 -149 79 -13 3 -35 7 -49 10 -94 20
-146 24 -350 25 l-230 2 -1 -23z m476 -191 c87 -12 142 -51 165 -121 11 -35
12 -121 1 -141 -3 -5 -6 -12 -6 -15 -1 -15 -35 -51 -68 -70 -47 -28 -72 -32
-207 -34 l-105 -1 -3 192 -2 192 22 3 c29 5 150 1 203 -5z"/>
<path d="M2434 1178 c-5 -8 -6 -1150 -1 -1155 6 -5 769 -4 775 2 7 6 10 136 4
153 -3 9 -65 12 -263 12 -142 0 -259 3 -260 8 -1 4 -2 224 -3 489 -1 265 -4
484 -7 488 -9 8 -240 11 -245 3z"/>
</g>
</svg>
