<?xml version="1.0" standalone="no"?>
<!DOCTYPE svg PUBLIC "-//W3C//DTD SVG 20010904//EN"
 "http://www.w3.org/TR/2001/REC-SVG-20010904/DTD/svg10.dtd">
<svg version="1.0" xmlns="http://www.w3.org/2000/svg"
 width="980.000000pt" height="980.000000pt" viewBox="0 0 980.000000 980.000000"
 preserveAspectRatio="xMidYMid meet">
<metadata>
Created by potrace 1.11, written by Peter Selinger 2001-2013
</metadata>
<g transform="translate(0.000000,980.000000) scale(0.100000,-0.100000)"
fill="#000000" stroke="none">
<path d="M4805 9294 c-261 -27 -444 -65 -670 -141 -165 -56 -427 -183 -575
-280 -634 -417 -1054 -1082 -1166 -1848 -27 -183 -25 -544 5 -734 41 -270 106
-482 223 -736 33 -71 578 -1278 1212 -2681 633 -1403 1155 -2553 1159 -2555 5
-2 516 1123 1138 2501 621 1378 1162 2575 1203 2660 210 436 298 835 283 1275
-15 400 -101 745 -275 1092 -386 772 -1108 1294 -1967 1424 -125 19 -473 33
-570 23z m395 -604 c300 -31 610 -138 870 -299 521 -324 876 -894 940 -1511
79 -762 -291 -1517 -940 -1921 -739 -459 -1670 -402 -2351 144 -490 395 -772
1017 -746 1647 23 524 225 988 592 1355 431 431 1035 647 1635 585z"/>
<path d="M4250 6731 l0 -1201 170 0 170 0 0 465 0 465 318 0 c342 1 414 8 533
53 206 78 358 250 416 467 25 92 24 329 -1 425 -65 252 -245 428 -508 497 -79
20 -109 22 -590 25 l-508 4 0 -1200z m940 908 c170 -27 284 -133 319 -297 15
-73 14 -246 -3 -309 -34 -127 -112 -220 -221 -264 -58 -23 -70 -24 -377 -27
l-318 -3 0 455 0 456 268 0 c147 0 296 -5 332 -11z"/>
</g>
</svg>
